<?xml version="1.0" encoding="UTF-8" standalone="no"?>
<svg
   xmlns:dc="http://purl.org/dc/elements/1.1/"
   xmlns:cc="http://creativecommons.org/ns#"
   xmlns:rdf="http://www.w3.org/1999/02/22-rdf-syntax-ns#"
   xmlns:svg="http://www.w3.org/2000/svg"
   xmlns="http://www.w3.org/2000/svg"
   xmlns:sodipodi="http://sodipodi.sourceforge.net/DTD/sodipodi-0.dtd"
   xmlns:inkscape="http://www.inkscape.org/namespaces/inkscape"
   sodipodi:docname="we4v_logo.svg"
   inkscape:version="1.0beta2 (2b71d25, 2019-12-03)"
   id="svg8"
   version="1.1"
   viewBox="0 0 210 297"
   height="297mm"
   width="210mm">
  <defs
     id="defs2" />
  <sodipodi:namedview
     inkscape:snap-global="false"
     inkscape:window-maximized="0"
     inkscape:window-y="446"
     inkscape:window-x="12"
     inkscape:window-height="803"
     inkscape:window-width="1440"
     showgrid="false"
     inkscape:document-rotation="0"
     inkscape:current-layer="layer1"
     inkscape:document-units="mm"
     inkscape:cy="309.69354"
     inkscape:cx="393.46681"
     inkscape:zoom="1.2685733"
     inkscape:pageshadow="2"
     inkscape:pageopacity="0.0"
     borderopacity="1.0"
     bordercolor="#666666"
     pagecolor="#ffffff"
     id="base" />
  <metadata
     id="metadata5">
    <rdf:RDF>
      <cc:Work
         rdf:about="">
        <dc:format>image/svg+xml</dc:format>
        <dc:type
           rdf:resource="http://purl.org/dc/dcmitype/StillImage" />
        <dc:title />
      </cc:Work>
    </rdf:RDF>
  </metadata>
  <g
     id="layer1"
     inkscape:groupmode="layer"
     inkscape:label="Layer 1">
    <g
       style="fill:#d87800;fill-opacity:1"
       id="g1994">
      <path
         inkscape:connector-curvature="0"
         id="path839"
         style="font-style:normal;font-variant:normal;font-weight:normal;font-stretch:normal;font-size:50.79999999999999716px;line-height:1.25;font-family:'Berkshire Swash';-inkscape-font-specification:'Berkshire Swash Normal';font-variant-ligatures:normal;font-variant-caps:normal;font-variant-numeric:normal;font-variant-east-asian:normal;fill:#d87800;fill-opacity:1;stroke-width:0.271456"
         d="m 71.231022,40.110135 c -1.011849,-2.254458 2.033304,-5.392774 3.308188,-4.763667 10.892286,5.374929 7.335899,27.233897 -6.435759,26.904852 -0.854429,-0.02041 -1.755505,-0.237588 -2.489349,-0.639918 -0.716855,-0.419296 -1.355671,-0.975846 -1.916446,-1.66965 -0.560776,-0.693804 -1.052461,-1.498979 -1.475057,-2.415524 -0.405609,-0.933511 -0.760028,-1.926625 -1.063256,-2.979341 -0.408051,1.05147 -0.872134,2.031819 -1.392249,2.941049 -0.519658,0.891827 -1.094207,1.669033 -1.723647,2.331617 -0.61291,0.663016 -1.288062,1.176393 -2.025458,1.540129 -0.737395,0.363737 -1.527628,0.534546 -2.370697,0.512432 -1.041439,-0.02732 -1.961,-0.286511 -2.758684,-0.777578 -0.780696,-0.508034 -1.466138,-1.178991 -2.056323,-2.012867 -0.58973,-0.851279 -1.093381,-1.830893 -1.510956,-2.938846 -0.417574,-1.107953 -0.775694,-2.27529 -1.074358,-3.502012 -0.282134,-1.226289 -0.513762,-2.48608 -0.694885,-3.779368 -0.603423,-3.287292 -0.527735,-6.829592 -0.957576,-9.845872 -0.220368,-1.729877 -0.882683,-3.320109 -1.244947,-2.70314 -0.521694,1.059506 -1.555664,1.16582 -1.818366,0.58574 -0.677281,-1.495525 2.896434,-2.228109 4.227308,-2.527373 0.632277,-0.140127 1.295562,-0.201085 1.989854,-0.182873 0.991846,0.02602 1.788797,0.229757 2.39085,0.611214 0.60251,0.364059 1.070262,0.820352 1.403259,1.368881 0.349984,0.53156 0.591376,1.103806 0.724177,1.716733 0.132801,0.612927 0.225873,1.163868 0.279216,1.652822 0.22863,2.635312 0.457211,4.957195 0.685743,6.965648 0.245063,2.008887 0.5151,3.696295 0.810113,5.062223 0.295469,1.348527 0.624178,2.375791 0.986129,3.081794 0.378937,0.689034 0.832897,1.040489 1.361882,1.054365 0.347147,0.0091 0.690135,-0.13861 1.028966,-0.44315 0.338832,-0.304542 0.664328,-0.731319 0.976488,-1.280338 0.312161,-0.549018 0.610757,-1.211572 0.895789,-1.987666 0.285489,-0.793496 0.539971,-1.666161 0.763444,-2.617995 -0.140203,-0.961375 -0.255839,-1.9134 -0.346906,-2.856074 -0.09107,-0.942673 -0.17501,-1.841628 -0.251829,-2.696865 -0.248347,-3.705681 1.216043,-4.351799 2.861827,-4.254014 7.888736,0.468719 0.352661,14.282124 9.471699,17.173274 3.688507,0.866356 4.896322,-4.643435 4.861173,-7.388397 -0.06917,-5.401508 -3.870342,-5.833722 -5.419357,-9.240245 z"
         sodipodi:nodetypes="csscsccccssccsccccacsccsccccsssccscscsc" />
      <path
         inkscape:connector-curvature="0"
         id="path841"
         style="font-style:normal;font-variant:normal;font-weight:normal;font-stretch:normal;font-size:50.79999999999999716px;line-height:1.25;font-family:'Berkshire Swash';-inkscape-font-specification:'Berkshire Swash Normal';font-variant-ligatures:normal;font-variant-caps:normal;font-variant-numeric:normal;font-variant-east-asian:normal;fill:#d87800;fill-opacity:1;stroke-width:0.287781"
         d="m 89.645094,48.59736 c 5.330674,22.283214 10.109814,0.900932 15.953446,1.474279 4.8515,0.476004 -1.02277,9.658195 -7.546159,11.260867 -1.03665,0.356716 -2.203319,0.593708 -3.500007,0.710979 -1.29255,0.09994 -2.710091,-0.0191 -4.252624,-0.357113 -1.542532,-0.33801 -2.985469,-0.93701 -4.328811,-1.796999 -1.321474,-0.873443 -2.419239,-1.98068 -3.293297,-3.321712 -0.87406,-1.34103 -1.462355,-2.902256 -1.764888,-4.683678 -0.2848,-1.777538 -0.166521,-3.758685 0.354827,-5.943443 0.376535,-1.577882 0.925932,-2.98104 1.648197,-4.209472 0.722264,-1.228433 1.555337,-2.295739 2.499219,-3.201918 0.961612,-0.902295 1.998572,-1.651233 3.110882,-2.246813 1.130039,-0.591697 2.271303,-1.034966 3.423789,-1.329806 1.156625,-0.312181 2.297878,-0.481758 3.423759,-0.508745 1.147749,-0.04043 2.218069,0.04813 3.210962,0.265704 1.312035,0.287503 2.422541,0.676812 3.331491,1.167927 0.90897,0.491114 1.62674,1.040684 2.1533,1.648716 0.54431,0.611913 0.90155,1.264943 1.07173,1.959094 0.17436,0.676804 0.18082,1.353329 0.0194,2.029571 -0.19448,0.814949 -0.62423,1.548667 -1.24562,2.053417 -3.91458,3.179771 -9.454207,3.514915 -14.269616,5.029146 z m 6.605612,-4.108456 c 1.093055,-0.898938 1.935819,-2.327629 1.986827,-3.752102 0.03962,-0.556946 3.9e-5,-1.094754 -0.118735,-1.613424 -0.118773,-0.518671 -0.31822,-0.972912 -0.59835,-1.362723 -0.280126,-0.389812 -0.668412,-0.63911 -1.16486,-0.747895 -0.638289,-0.139867 -1.233441,-0.06957 -1.785458,0.210876 -0.530151,0.266999 -1.016274,0.662242 -1.45837,1.185732 -0.424368,0.527376 -0.816234,1.153104 -1.175595,1.877184 -0.337495,0.710627 -0.641599,1.437692 -0.912311,2.181198 -0.270711,0.743507 -0.499757,1.468774 -0.687134,2.175802 -0.183236,0.68969 -0.332782,1.277286 -0.448639,1.762789 0,0 4.65179,-0.510431 6.362625,-1.917437 z"
         sodipodi:nodetypes="csccscscssccccsccccacacccccccscca" />
    </g>
    <path
       sodipodi:nodetypes="cccccccscsccccc"
       d="m 116.29833,27.509102 c 0.72353,-3.012577 4.79236,-2.529563 6.23275,-1.124617 -0.33874,5.60616 -5.06774,16.12262 -9.76924,19.244213 1.72433,0.528936 9.63515,0.64144 11.82083,0.08353 -0.4195,-3.76745 -0.60822,-6.232625 -0.5155,-9.771278 0.23261,-9.531924 6.20574,-15.536871 10.02819,-12.496323 1.99771,2.303074 -6.27341,7.811295 -6.03033,21.548295 3.41415,-1.049969 5.88482,-6.910416 6.26752,-1.154726 0.11042,1.660661 -3.85754,4.252868 -5.97235,5.012337 -0.71216,3.093047 4.1471,15.96662 -0.60611,16.20717 -4.12056,0.208532 -2.55543,-12.531838 -2.91668,-15.405818 -3.82008,0.816811 -16.4361,1.288446 -20.94714,-1.927871 -1.10449,-1.112663 0.0453,-2.602303 1.24224,-2.884982 8.84347,-3.556765 10.58673,-12.77609 11.16582,-17.329929 z"
       style="font-style:normal;font-variant:normal;font-weight:normal;font-stretch:normal;font-size:50.79999999999999716px;line-height:1.25;font-family:Montez;-inkscape-font-specification:'Montez Normal';font-variant-ligatures:normal;font-variant-caps:normal;font-variant-numeric:normal;font-variant-east-asian:normal;fill:#f6d428;fill-opacity:1;stroke-width:0.354298"
       id="path843"
       inkscape:connector-curvature="0" />
    <path
       sodipodi:nodetypes="csccccsscc"
       d="m 141.73643,33.702854 c 3.74009,0.14202 4.37354,3.318814 3.16872,5.974606 -2.39719,5.284159 -3.36747,12.793656 3.2142,18.251726 9.75481,-7.043389 6.57448,-17.021027 4.07088,-20.742027 0.0597,-2.713406 6.03987,-3.553127 7.44216,-2.20496 3.36242,2.715238 -0.70371,25.041922 -11.66777,27.932688 -6.46551,-1.899573 -8.61304,-4.298801 -9.98799,-6.782881 -3.35298,-6.057711 2.47399,-15.328393 -0.41424,-20.204864 -0.8407,-1.419431 -1.27124,3.674273 -3.61254,1.588398 -0.67008,-3.78973 4.81206,-4.293394 7.78658,-3.812686 z"
       style="font-style:normal;font-variant:normal;font-weight:normal;font-stretch:normal;font-size:50.79999999999999716px;line-height:1.25;font-family:'Berkshire Swash';-inkscape-font-specification:'Berkshire Swash Normal';font-variant-ligatures:normal;font-variant-caps:normal;font-variant-numeric:normal;font-variant-east-asian:normal;fill:#08af0d;fill-opacity:1;stroke-width:0.294632"
       id="path845"
       inkscape:connector-curvature="0" />
  </g>
</svg>
